<mxfile host="app.diagrams.net" agent="Mozilla/5.0 (Windows NT 10.0; Win64; x64) AppleWebKit/537.36 (KHTML, like Gecko) Chrome/131.0.0.0 Safari/537.36" version="25.0.3">
  <diagram name="Page-1" id="F5wWVE5ABeBJTxwkdwtt">
    <mxGraphModel dx="1905" dy="1487" grid="0" gridSize="10" guides="1" tooltips="1" connect="1" arrows="1" fold="1" page="0" pageScale="1" pageWidth="850" pageHeight="1100" math="0" shadow="0">
      <root>
        <mxCell id="0" />
        <mxCell id="1" parent="0" />
        <mxCell id="QBDGmWq2A_gsT_64ioMT-1" value="" style="endArrow=classic;html=1;rounded=0;" edge="1" parent="1">
          <mxGeometry width="50" height="50" relative="1" as="geometry">
            <mxPoint x="-403" y="-269" as="sourcePoint" />
            <mxPoint x="-201" y="-269" as="targetPoint" />
          </mxGeometry>
        </mxCell>
        <mxCell id="QBDGmWq2A_gsT_64ioMT-2" value="" style="endArrow=classic;html=1;rounded=0;" edge="1" parent="1">
          <mxGeometry width="50" height="50" relative="1" as="geometry">
            <mxPoint x="-403" y="-269" as="sourcePoint" />
            <mxPoint x="-403" y="-508" as="targetPoint" />
          </mxGeometry>
        </mxCell>
        <mxCell id="QBDGmWq2A_gsT_64ioMT-3" value="" style="rounded=1;whiteSpace=wrap;html=1;strokeWidth=2;fillWeight=4;hachureGap=8;hachureAngle=45;fillColor=#d5e8d4;sketch=1;rotation=-90;strokeColor=#82b366;" vertex="1" parent="1">
          <mxGeometry x="-426" y="-364.06" width="159.87" height="28.25" as="geometry" />
        </mxCell>
        <mxCell id="QBDGmWq2A_gsT_64ioMT-4" value="" style="rounded=1;whiteSpace=wrap;html=1;strokeWidth=2;fillWeight=4;hachureGap=8;hachureAngle=45;fillColor=#f8cecc;sketch=1;rotation=-90;strokeColor=#b85450;" vertex="1" parent="1">
          <mxGeometry x="-308.07" y="-312.13" width="56" height="28.25" as="geometry" />
        </mxCell>
        <mxCell id="QBDGmWq2A_gsT_64ioMT-5" value="&lt;font face=&quot;Comic Sans MS&quot; style=&quot;font-size: 14px;&quot;&gt;Response Time&lt;/font&gt;" style="text;html=1;align=center;verticalAlign=middle;whiteSpace=wrap;rounded=0;" vertex="1" parent="1">
          <mxGeometry x="-470" y="-394.06" width="60" height="30" as="geometry" />
        </mxCell>
        <mxCell id="QBDGmWq2A_gsT_64ioMT-7" value="&lt;font face=&quot;Comic Sans MS&quot; style=&quot;font-size: 11px;&quot;&gt;Before&lt;/font&gt;" style="text;html=1;align=center;verticalAlign=middle;whiteSpace=wrap;rounded=0;" vertex="1" parent="1">
          <mxGeometry x="-376.06" y="-269" width="60" height="30" as="geometry" />
        </mxCell>
        <mxCell id="QBDGmWq2A_gsT_64ioMT-8" value="&lt;font face=&quot;Comic Sans MS&quot; style=&quot;font-size: 11px;&quot;&gt;After&lt;/font&gt;" style="text;html=1;align=center;verticalAlign=middle;whiteSpace=wrap;rounded=0;" vertex="1" parent="1">
          <mxGeometry x="-308.07" y="-269" width="60" height="30" as="geometry" />
        </mxCell>
        <mxCell id="QBDGmWq2A_gsT_64ioMT-9" value="&lt;font face=&quot;Comic Sans MS&quot; style=&quot;font-size: 11px;&quot;&gt;23s&lt;/font&gt;" style="text;html=1;align=center;verticalAlign=middle;whiteSpace=wrap;rounded=0;" vertex="1" parent="1">
          <mxGeometry x="-376.06" y="-461" width="60" height="30" as="geometry" />
        </mxCell>
        <mxCell id="QBDGmWq2A_gsT_64ioMT-10" value="&lt;font face=&quot;Comic Sans MS&quot; style=&quot;font-size: 11px;&quot;&gt;10s&lt;/font&gt;" style="text;html=1;align=center;verticalAlign=middle;whiteSpace=wrap;rounded=0;" vertex="1" parent="1">
          <mxGeometry x="-310.07" y="-352" width="60" height="30" as="geometry" />
        </mxCell>
        <mxCell id="QBDGmWq2A_gsT_64ioMT-11" value="" style="endArrow=classic;html=1;rounded=0;entryX=1;entryY=0.25;entryDx=0;entryDy=0;" edge="1" parent="1" target="QBDGmWq2A_gsT_64ioMT-10">
          <mxGeometry width="50" height="50" relative="1" as="geometry">
            <mxPoint x="-341" y="-479" as="sourcePoint" />
            <mxPoint x="-242" y="-397" as="targetPoint" />
          </mxGeometry>
        </mxCell>
        <mxCell id="QBDGmWq2A_gsT_64ioMT-12" value="&lt;font face=&quot;Comic Sans MS&quot; style=&quot;font-size: 12px;&quot;&gt;60% Dropped&lt;/font&gt;" style="text;html=1;align=center;verticalAlign=middle;whiteSpace=wrap;rounded=0;" vertex="1" parent="1">
          <mxGeometry x="-296" y="-447" width="60" height="30" as="geometry" />
        </mxCell>
      </root>
    </mxGraphModel>
  </diagram>
</mxfile>
